<svg width="98" height="40" viewBox="0 0 98 40" fill="none" xmlns="http://www.w3.org/2000/svg">
<rect width="98" height="40" rx="20" fill="#7D7D7D"/>
<path d="M30.1445 28H32.1245L34.0865 20.044C34.3025 19 34.5365 18.046 34.7525 17.038H34.8245C35.0405 18.046 35.2385 19 35.4725 20.044L37.4705 28H39.4685L42.2045 14.788H40.6025L39.2165 21.988C38.9645 23.392 38.7125 24.814 38.4605 26.254H38.3705C38.0645 24.814 37.7585 23.392 37.4345 21.988L35.5985 14.788H34.0685L32.2505 21.988C31.9265 23.41 31.6025 24.832 31.2965 26.254H31.2245C30.9725 24.832 30.7025 23.41 30.4505 21.988L29.0645 14.788H27.3545L30.1445 28Z" fill="white"/>
<path d="M44.3452 28H45.9832V21.718C46.6312 20.044 47.6392 19.468 48.4492 19.468C48.8452 19.468 49.0792 19.504 49.4032 19.63L49.7092 18.19C49.4032 18.028 49.0972 17.974 48.6652 17.974C47.5672 17.974 46.5772 18.766 45.8932 20.008H45.8392L45.6952 18.226H44.3452V28Z" fill="white"/>
<path d="M51.3237 28H52.9617V18.226H51.3237V28ZM52.1517 16.21C52.7997 16.21 53.2497 15.778 53.2497 15.112C53.2497 14.482 52.7997 14.05 52.1517 14.05C51.5037 14.05 51.0537 14.482 51.0537 15.112C51.0537 15.778 51.5037 16.21 52.1517 16.21Z" fill="white"/>
<path d="M59.3588 28.234C59.9528 28.234 60.6008 28.054 61.1588 27.874L60.8348 26.65C60.5108 26.776 60.0608 26.902 59.7188 26.902C58.5848 26.902 58.2068 26.218 58.2068 25.012V19.558H60.8528V18.226H58.2068V15.472H56.8388L56.6408 18.226L55.1108 18.316V19.558H56.5688V24.976C56.5688 26.92 57.2708 28.234 59.3588 28.234Z" fill="white"/>
<path d="M66.7443 28.234C68.0763 28.234 69.1203 27.784 69.9843 27.226L69.3903 26.146C68.6703 26.632 67.8963 26.92 66.9423 26.92C65.0883 26.92 63.8103 25.588 63.7023 23.5H70.2903C70.3263 23.266 70.3623 22.924 70.3623 22.564C70.3623 19.774 68.9583 17.974 66.4743 17.974C64.2063 17.974 62.0643 19.954 62.0643 23.122C62.0643 26.344 64.1523 28.234 66.7443 28.234ZM63.6843 22.312C63.8823 20.404 65.1063 19.288 66.4923 19.288C68.0223 19.288 68.9223 20.35 68.9223 22.312H63.6843Z" fill="white"/>
</svg>
