<svg width="920" height="667" viewBox="0 0 920 667" fill="none" xmlns="http://www.w3.org/2000/svg">
<path d="M149.917 189.001L245.879 377.626L308.512 340.429L212.431 163.326L200.585 160.039L149.917 189.001Z" fill="#EFCAD1"/>
<path d="M143.336 193.612L240.074 380.584L160.448 420.083C160.448 420.083 136.099 381.242 132.814 338.448C129.519 295.662 120.959 200.852 143.336 193.612Z" fill="#EFCAD1"/>
<path d="M233.485 153.456L236.122 140.29L283.506 113.949L299.951 121.856L387.471 296.977L329.566 326.605L233.485 153.456Z" fill="#EFCAD1"/>
<path d="M242.155 388.491L343.383 548.475L302.579 561.641C302.579 561.641 226.905 505.68 209.793 486.589C192.682 467.497 166.581 427.78 166.581 427.78L242.155 388.491Z" fill="#EFCAD1"/>
<path d="M249.721 385.086L311.469 349.313L402.612 512.254L401.298 524.106L369.712 541.882L349.315 545.836C349.306 545.836 256.958 408.788 249.721 385.086Z" fill="#EFCAD1"/>
<path d="M332.851 333.188L390.766 301.588L486.838 464.201L484.209 477.367L434.855 503.699L423.009 499.746L332.851 333.188Z" fill="#EFCAD1"/>
<path d="M500.655 492.505L563.178 605.75L501.321 640.637L441.435 533.327L444.72 522.133L500.655 492.505Z" fill="#EFCAD1"/>
<path d="M409.849 541.225L422.352 546.493L471.706 636.693L467.755 647.887L457.223 651.749H384.177C384.177 651.749 353.905 603.029 338.774 596.492V582.047L409.849 541.225Z" fill="#EFCAD1"/>
<path d="M509.215 651.74L502.307 645.905L567.121 610.351L587.518 646.563V651.74H509.215Z" fill="#EFCAD1"/>
<path d="M317.063 12.0349L332.851 51.4053L343.383 56.0162L383.529 34.0301V27.7119L376.283 12.0349H317.063Z" fill="#EFCAD1"/>
<path d="M399.317 12.0349L415.115 43.5075L424.323 49.4332L553.304 12.0349H399.317Z" fill="#EFCAD1"/>
<path d="M437.483 63.914L432.217 73.7931L455.909 115.93L471.049 124.485L563.178 98.8105L568.435 88.274L558.57 36.9245L549.352 31.6562L437.483 63.914Z" fill="#EFCAD1"/>
<path d="M565.15 116.587L576.339 123.17L585.547 175.835L578.967 183.084L519.747 215.999L510.53 213.361L474.992 147.53L480.258 137.651L565.15 116.587Z" fill="#EFCAD1"/>
<path d="M580.938 200.195L592.784 206.12L596.735 235.091L616.475 290.394L611.209 299.607L577.652 317.384L567.121 315.411L523.689 241.674L527.641 229.165L580.938 200.195Z" fill="#EFCAD1"/>
<path d="M638.196 304.875L673.724 392.436L628.321 416.796L582.918 342.401L586.204 332.531L638.196 304.875Z" fill="#EFCAD1"/>
<path d="M678.99 408.24L634.901 435.23L706.633 570.196L737.562 627.471L747.428 636.693L760.588 636.026L746.771 576.122L678.99 408.24Z" fill="#EFCAD1"/>
<path d="M755.833 582.349C763.207 604.07 768.4 620.377 769.148 624.832C771.776 640.637 786.917 637.341 792.84 637.341C793.908 637.341 798.279 637.104 804.704 636.72L779.023 572.168L755.833 582.349Z" fill="#8DC2AE"/>
<path d="M617.79 214.027C625.027 243.655 681.619 390.464 694.779 417.462C703.677 435.714 733.328 516.856 752.42 572.387L775.062 565.594C775.062 565.594 655.956 242.998 648.061 221.277C641.956 204.459 617.333 71.4009 606.501 12.0349H576.229C586.094 61.3483 611.967 190.169 617.79 214.027Z" fill="#8DC2AE"/>
<path d="M873.94 605.083L885.74 631.927C901.328 630.886 912.763 630.11 912.763 630.11L920 628.138L901.574 592.584L873.94 605.083Z" fill="#8DC2AE"/>
<path d="M787.67 317.384C764.571 262.081 746.94 203.491 744.959 187.029C742.988 170.576 705.151 12.0349 705.151 12.0349H674.888C687.911 65.7857 715.308 179.861 721.277 212.703C729.171 256.155 768.66 347.012 781.163 375.316C793.666 403.62 870.655 596.528 870.655 596.528L897.632 583.362C897.632 583.362 877.235 546.493 869.331 528.059C861.437 509.625 810.768 372.687 787.67 317.384Z" fill="#8DC2AE"/>
<path d="M31.4672 105.394C34.0955 136.337 38.7043 176.492 47.9217 194.269C57.1301 212.046 65.0334 235.091 63.7192 267.349C62.405 299.607 70.9563 335.161 77.5363 395.074C81.8712 434.563 87.0641 453.454 90.1031 461.754L112.07 446.579C108.228 437.138 100.388 418.494 94.6479 408.907C86.7538 395.741 84.7734 354.261 77.5363 295.014C70.2992 235.758 70.2992 173.881 72.9276 145.567C74.9992 123.253 57.4586 73.1449 49.9295 52.9027L30.5363 63.987C30.153 74.3683 30.0891 89.1505 31.4672 105.394Z" fill="#8DC2AE"/>
<path d="M51.2071 312.115C54.5016 281.83 55.1587 256.812 55.1587 242.989C55.1587 229.166 36.0758 210.731 33.4475 185.714C30.8191 160.696 28.1816 136.994 22.9158 110.004C19.9772 94.9574 18.6813 80.7322 18.1063 71.0905L14.5471 73.1266C17.9512 94.0627 23.3447 130.922 24.23 159.382C25.5442 201.519 10.4129 225.879 10.4129 225.879C10.4129 225.879 20.2875 234.434 6.46125 278.543C-7.35584 322.652 4.49 364.131 9.75583 381.251C14.3737 396.28 49.9294 466.611 58.5446 483.557L69.9067 475.705C66.0189 468.949 58.6906 455.043 49.8929 432.6C36.7329 399.019 47.9216 342.401 51.2071 312.115Z" fill="#8DC2AE"/>
<path d="M77.5271 395.074C70.9471 335.161 62.3958 299.616 63.71 267.349C65.0242 235.091 57.13 212.046 47.9125 194.269C38.7042 176.492 34.0954 136.336 31.458 105.393C30.0799 89.1505 30.1438 74.3683 30.5271 63.9779L18.0972 71.0814C18.6721 80.7322 19.9681 94.9483 22.9067 109.995C28.1725 136.985 30.8009 160.687 33.4383 185.705C36.0667 210.722 55.1496 229.156 55.1496 242.98C55.1496 256.803 54.4925 281.821 51.198 312.106C47.9034 342.392 36.7238 399.01 49.8838 432.582C58.6815 455.025 66.0007 468.93 69.8976 475.687L90.0939 461.736C87.064 453.454 81.8712 434.563 77.5271 395.074Z" fill="#5590C1"/>
<path d="M245.988 608.379C226.248 597.185 201.899 579.408 190.053 569.538C178.207 559.659 156.496 555.715 128.195 535.299C106.995 520.006 90.2304 499.545 83.1485 490.241L70.2075 499.326C74.3691 504.165 81.8526 512.775 95.2864 528.059C124.244 560.974 142.013 583.362 184.778 606.407C214.94 622.659 235.593 641.833 245.166 651.74H297.569C291.29 633.78 264.368 618.797 245.988 608.379Z" fill="#8DC2AE"/>
<path d="M241.188 580.157C216.282 561.513 186.239 539.518 176.893 531.346C164.536 520.526 136.464 478.673 124.837 460.978L98.4536 479.503C105.143 488.186 117.783 504.229 132.805 521.476C150.455 541.727 206.161 562.791 241.188 580.157Z" fill="#8DC2AE"/>
<path d="M276.916 608.379C273.147 604.344 258.39 593.049 241.178 580.166C206.152 562.8 150.445 541.727 132.795 521.485C117.773 504.247 105.134 488.205 98.444 479.513L83.1484 490.25C90.2213 499.554 106.995 520.015 128.195 535.309C156.496 555.715 178.207 559.669 190.053 569.548C201.899 579.427 226.248 597.195 245.988 608.388C264.368 618.806 291.29 633.789 297.578 651.749H309.36C301.63 640.738 284.017 615.985 276.916 608.379Z" fill="#5590C1"/>
<path d="M777.062 444.452C772.453 417.462 757.979 389.149 746.133 369.4C734.287 349.651 715.862 310.143 701.387 280.524C686.913 250.896 660.584 165.974 654.004 135.031C648.556 109.402 630.486 36.404 624.426 12.0349H622.354C635.286 77.5822 661.415 209.909 663.888 221.268C667.182 236.406 705.348 337.799 705.348 337.799L820.548 636.035C826.152 635.679 832.44 635.278 839.002 634.848C832.54 616.907 815.374 569.283 805.371 541.892C792.859 507.652 781.671 471.441 777.062 444.452Z" fill="#8DC2AE"/>
<path d="M727.051 277.885L728.146 277.904C723.108 265.998 719.594 257.808 718.499 255.498C712.576 242.989 699.416 172.548 695.465 152.132C692.563 137.149 671.591 54.7836 660.639 12.0258H638.106C652.553 60.3988 692.718 195.346 698.102 217.962C704.682 245.628 727.051 277.885 727.051 277.885Z" fill="#8DC2AE"/>
<path d="M806.677 467.488C802.388 455.673 750.395 330.495 728.146 277.895L727.051 277.876C727.051 277.876 704.673 245.618 698.093 217.962C692.718 195.356 652.544 60.4079 638.106 12.0349H624.426C630.486 36.404 648.565 109.402 654.014 135.022C660.594 165.965 686.913 250.896 701.397 280.515C715.871 310.143 734.297 349.641 746.143 369.39C757.988 389.14 772.463 417.453 777.071 444.443C781.68 471.432 792.869 507.643 805.372 541.882C815.374 569.274 832.541 616.898 839.002 634.839C848.922 634.191 859.49 633.497 869.365 632.84C858.021 603.047 811.295 480.206 806.677 467.488Z" fill="#5590C1"/>
<path d="M496.713 230.48L399.318 52.7292L390.109 49.4331L369.375 62.5353L469.735 243.619L496.713 230.48Z" fill="#EFCAD1"/>
<path d="M580.482 440.507L603.316 427.99L501.978 243.646L477.191 257.05L523.032 339.771L580.482 440.507Z" fill="#EFCAD1"/>
<path d="M349.306 83.0057L446.701 254.84L469.735 243.619L369.374 62.5353L352.6 73.1357L349.306 83.0057Z" fill="#8DC2AE"/>
<path d="M497.369 338.457C523.689 383.223 530.926 416.805 530.926 416.805L555.275 454.331L580.482 440.517L523.032 339.781L477.182 257.068L453.271 269.997C453.281 269.988 471.049 293.681 497.369 338.457Z" fill="#8DC2AE"/>
<path d="M704.233 606.453C678.634 559.358 615.819 444.452 615.819 444.452L589.115 460.275L672.41 611.675L704.233 606.453Z" fill="#EFCAD1"/>
<path d="M650.699 627.471C650.699 627.471 655.308 641.295 669.125 641.295C682.942 641.295 707.947 639.98 707.947 639.98C707.947 639.98 721.108 638.008 714.528 625.499C713.378 623.317 709.636 616.396 704.233 606.453L672.419 611.675L589.124 460.275L565.816 474.08L650.699 627.471Z" fill="#8DC2AE"/>
<path d="M126.882 174.52C157.153 159.382 265.071 96.1718 265.071 96.1718L267.699 85.6353L229.543 12.0349H188.219C180.343 16.3171 169.839 21.0284 157.153 24.4158C127.539 32.3136 93.3247 83.6722 93.3247 83.6722C93.3247 83.6722 101.876 125.809 104.513 146.873C105.298 153.191 103.665 165.901 100.991 180.601L113.019 187.476C116.432 181.916 120.941 177.496 126.882 174.52Z" fill="#EFCAD1"/>
<path d="M82.793 260.109C82.793 260.109 86.7446 268.664 92.6675 344.382C97.2033 402.37 113.32 430.619 120.612 440.663L128.853 434.965L132.805 424.693C132.805 424.693 107.142 349.641 105.17 295.653C103.582 252.275 99.0376 210.192 113.01 187.467L100.982 180.592C94.7301 214.922 82.793 260.109 82.793 260.109Z" fill="#8DC2AE"/>
<rect x="343.815" y="249.957" width="83.319" height="83.319" rx="10" fill="#CC2B2B"/>
<path d="M373.509 290.407L355.253 322.021C355.13 322.233 355.283 322.498 355.528 322.498H415.905C416.149 322.498 416.303 322.233 416.18 322.021L397.926 290.407C397.869 290.308 397.764 290.248 397.651 290.248H373.784C373.67 290.248 373.565 290.308 373.509 290.407Z" fill="white"/>
<path d="M378.161 305.408L401.69 261.519C401.803 261.31 402.095 261.292 402.231 261.486L415.224 279.861C415.326 280.005 415.291 280.205 415.146 280.306L378.625 305.819C378.35 306.011 378.004 305.703 378.161 305.408Z" fill="#316E1D"/>
<rect x="290.121" y="372.158" width="129.607" height="30.8471" rx="4" fill="#4A4F7C"/>
<path d="M308.924 392.443C307.466 392.443 306.404 391.399 306.404 389.959C306.404 388.501 307.466 387.457 308.924 387.457C310.4 387.457 311.462 388.501 311.462 389.959C311.462 391.399 310.4 392.443 308.924 392.443ZM308.924 386.233C306.656 386.233 305.018 387.781 305.018 389.959C305.018 392.155 306.656 393.667 308.924 393.667C311.228 393.667 312.866 392.155 312.866 389.959C312.866 387.781 311.228 386.233 308.924 386.233ZM309.644 381.319H308.168V383.713H304.1V384.901H313.622V383.713H309.644V381.319ZM319.274 387.763H316.628V381.139H315.152V397.267H316.628V389.005H319.274V387.763ZM332.485 381.121V397.303H333.961V381.121H332.485ZM325.447 382.363C323.053 382.363 321.343 384.559 321.343 387.997C321.343 391.435 323.053 393.631 325.447 393.631C327.841 393.631 329.551 391.435 329.551 387.997C329.551 384.559 327.841 382.363 325.447 382.363ZM325.447 383.695C327.013 383.695 328.129 385.387 328.129 387.997C328.129 390.625 327.013 392.317 325.447 392.317C323.863 392.317 322.747 390.625 322.747 387.997C322.747 385.387 323.863 383.695 325.447 383.695ZM339.396 383.929H343.914V391.975H339.396V383.929ZM337.956 393.163H345.354V382.741H337.956V393.163ZM352.392 387.565H349.728V381.139H348.252V397.267H349.728V388.807H352.392V387.565ZM366.826 389.833H357.232V387.277H366.304V386.107H357.232V383.713H366.664V382.525H355.738V391.021H366.826V389.833ZM353.848 393.973V395.179H368.5V393.973H353.848ZM386.258 384.577V386.359H382.532V384.577H386.258ZM381.074 387.727H376.718V385.333H381.074V387.727ZM382.532 387.511H386.258V389.563H387.734V381.139H386.258V383.425H382.532V381.895H381.074V384.181H376.718V381.877H375.26V388.915H382.532V387.511ZM378.824 395.881V394.171H387.734V390.337H377.33V391.507H386.276V393.055H377.366V397.051H388.346V395.881H378.824ZM393.277 383.083H391.801V393.073H392.827C394.573 393.073 396.427 392.983 398.605 392.569L398.461 391.291C396.535 391.669 394.825 391.777 393.277 391.795V383.083ZM403.285 381.121V387.691H400.999V381.481H399.613V396.439H400.999V388.915H403.285V397.249H404.707V381.121H403.285ZM357.122 414.897C354.782 414.069 353.198 412.053 353.198 409.947V409.353H356.744V408.147H348.122V409.353H351.722V409.965C351.722 412.251 350.048 414.393 347.654 415.257L348.428 416.409C350.318 415.725 351.794 414.249 352.496 412.395C353.198 414.051 354.584 415.401 356.384 416.049L357.122 414.897ZM351.848 418.533H359.462V421.863H351.848V418.533ZM350.408 423.051H360.902V417.363H350.408V423.051ZM359.408 407.121V411.171H356.222V412.395H359.408V416.571H360.902V407.121H359.408Z" fill="white"/>
<rect x="344.316" y="336.553" width="82.319" height="29.8471" rx="3.5" fill="white" stroke="#7D7D7D"/>
<path d="M348.669 356.249C347.409 356.249 346.581 354.611 346.581 351.983C346.581 349.373 347.409 347.735 348.669 347.735C349.947 347.735 350.757 349.373 350.757 351.983C350.757 354.611 349.947 356.249 348.669 356.249ZM348.669 346.367C346.581 346.367 345.231 348.527 345.231 351.983C345.231 355.457 346.581 357.617 348.669 357.617C350.775 357.617 352.125 355.457 352.125 351.983C352.125 348.527 350.775 346.367 348.669 346.367ZM357.345 345.017V351.407H355.167V345.377H353.781V360.371H355.167V352.613H357.345V361.163H358.749V345.017H357.345ZM370.88 349.733H366.866V346.655H370.88V349.733ZM365.39 349.733H362.996V350.867H374.732V349.733H372.356V346.655H374.786V345.521H362.942V346.655H365.39V349.733ZM364.832 358.355H374.318V354.809H363.338V355.907H372.86V357.293H363.392V360.983H374.804V359.867H364.832V358.355ZM361.574 352.217V353.387H376.19V352.217H361.574ZM382.47 356.213C380.922 356.213 379.842 354.521 379.842 351.893C379.842 349.283 380.922 347.591 382.47 347.591C384 347.591 385.08 349.283 385.08 351.893C385.08 354.521 384 356.213 382.47 356.213ZM389.976 345.017V351.173H386.466C386.232 348.149 384.648 346.259 382.47 346.259C380.112 346.259 378.438 348.455 378.438 351.893C378.438 355.331 380.112 357.527 382.47 357.527C384.72 357.527 386.322 355.547 386.466 352.379H389.976V361.199H391.452V345.017H389.976ZM404.285 346.727H400.253V344.927H398.777V346.727H394.763V347.915H404.285V346.727ZM397.067 351.659C397.067 350.597 398.039 349.895 399.515 349.895C400.991 349.895 401.981 350.597 401.981 351.659C401.981 352.739 400.991 353.441 399.515 353.441C398.039 353.441 397.067 352.739 397.067 351.659ZM403.385 351.659C403.385 349.895 401.819 348.743 399.515 348.743C397.229 348.743 395.663 349.895 395.663 351.659C395.663 353.441 397.229 354.575 399.515 354.575C401.819 354.575 403.385 353.441 403.385 351.659ZM396.761 357.203H405.761V361.181H407.237V355.997H396.761V357.203ZM409.631 349.481H407.237V345.035H405.761V355.115H407.237V350.705H409.631V349.481ZM419.727 354.557V355.655H423.003V357.311H424.479V345.017H423.003V354.557H419.727ZM416.433 346.763C417.963 346.763 419.007 347.447 419.007 348.473C419.007 349.517 417.963 350.201 416.433 350.201C414.903 350.201 413.859 349.517 413.859 348.473C413.859 347.447 414.903 346.763 416.433 346.763ZM416.433 351.299C418.791 351.299 420.411 350.201 420.411 348.473C420.411 346.781 418.791 345.665 416.433 345.665C414.075 345.665 412.455 346.781 412.455 348.473C412.455 350.201 414.075 351.299 416.433 351.299ZM415.857 356.735H417.333V353.549C418.791 353.459 420.285 353.297 421.707 353.081L421.581 352.019C418.161 352.451 414.165 352.487 411.177 352.487L411.375 353.711C412.707 353.711 414.255 353.693 415.857 353.621V356.735ZM414.957 359.597V356.105H413.481V360.803H424.893V359.597H414.957Z" fill="black"/>
<rect x="464" y="100" width="151" height="31" rx="4" fill="#4A4F7C"/>
<path d="M494.294 112.642V114.424H490.568V112.642H494.294ZM489.11 115.792H484.754V113.398H489.11V115.792ZM490.568 115.576H494.294V117.628H495.77V109.204H494.294V111.49H490.568V109.96H489.11V112.246H484.754V109.942H483.296V116.98H490.568V115.576ZM486.86 123.946V122.236H495.77V118.402H485.366V119.572H494.312V121.12H485.402V125.116H496.382V123.946H486.86ZM501.313 111.148H499.837V121.138H500.863C502.609 121.138 504.463 121.048 506.641 120.634L506.497 119.356C504.571 119.734 502.861 119.842 501.313 119.86V111.148ZM511.321 109.186V115.756H509.035V109.546H507.649V124.504H509.035V116.98H511.321V125.314H512.743V109.186H511.321ZM522.911 124.18C520.355 124.18 518.861 123.55 518.861 122.416C518.861 121.282 520.355 120.652 522.911 120.652C525.431 120.652 526.925 121.282 526.925 122.416C526.925 123.55 525.431 124.18 522.911 124.18ZM522.911 119.5C519.455 119.5 517.367 120.544 517.367 122.416C517.367 124.288 519.455 125.332 522.911 125.332C526.331 125.332 528.419 124.288 528.419 122.416C528.419 120.544 526.331 119.5 522.911 119.5ZM523.649 117.16V115.288H528.509V114.1H518.915V111.112H528.401V109.924H517.439V115.288H522.173V117.16H515.603V118.348H530.219V117.16H523.649ZM537.213 110.86V112.066H543.027C542.973 113.056 542.811 113.992 542.541 114.892L536.403 115.306L536.655 116.602L542.091 116.08C541.101 118.24 539.319 120.076 536.331 121.552L537.141 122.686C542.919 119.806 544.503 115.54 544.503 110.86H537.213ZM551.199 115.738H548.607V109.186H547.131V125.332H548.607V116.962H551.199V115.738ZM555.572 112.426H557.588V120.004C556.904 120.04 556.238 120.058 555.572 120.076V112.426ZM558.938 112.426H560.27V111.238H552.89V112.426H554.222V120.112C553.61 120.13 553.07 120.13 552.584 120.13L552.728 121.354C554.834 121.354 558.218 121.282 560.72 120.814L560.63 119.734C560.108 119.806 559.514 119.86 558.938 119.914V112.426ZM561.998 115.342H559.784V116.638H561.998V124.486H563.384V109.582H561.998V115.342ZM565.112 109.204V125.332H566.534V109.204H565.112ZM570.007 110.932V112.12H575.893C575.623 115.9 573.625 118.978 569.287 121.102L570.097 122.254C575.461 119.608 577.369 115.522 577.369 110.932H570.007ZM581.113 109.204V115.666H577.333V116.872H581.113V125.332H582.589V109.204H581.113ZM588.275 116.44H594.233V110.68H586.745V111.886H592.739V115.252H586.799V121.444H588.131C590.903 121.444 593.351 121.336 596.267 120.85L596.123 119.644C593.297 120.094 590.921 120.22 588.275 120.22V116.44ZM597.635 109.168V125.35H599.111V109.168H597.635Z" fill="white"/>
<rect x="444.724" y="615.635" width="129.607" height="30.8471" rx="4" fill="#4A4F7C"/>
<path d="M464.139 635.236H460.755V627.64H464.139V635.236ZM467.901 630.682H465.507V626.47H459.369V636.406H465.507V631.906H467.901V639.934H469.305V624.958H467.901V630.682ZM471.105 624.598V640.726H472.509V624.598H471.105ZM476.216 626.326V627.55H482.138C481.796 631.366 479.582 634.462 475.46 636.532L476.27 637.684C481.49 635.074 483.596 630.916 483.596 626.326H476.216ZM490.364 631.15H487.772V624.598H486.296V640.744H487.772V632.374H490.364V631.15ZM498.607 632.068H494.035V629.296H498.607V632.068ZM500.047 625.624H498.607V628.144H494.035V625.624H492.577V633.256H500.047V625.624ZM493.945 636.406H502.963V640.762H504.439V635.218H493.945V636.406ZM506.833 628.792H504.439V624.616H502.963V634.354H504.439V630.016H506.833V628.792ZM522.383 632.716C519.557 632.176 516.497 629.728 516.497 626.974V625.732H514.949V626.974C514.949 629.728 511.907 632.158 509.081 632.716L509.747 633.94C512.177 633.364 514.697 631.636 515.723 629.278C516.749 631.654 519.269 633.382 521.717 633.94L522.383 632.716ZM508.469 637.36V638.584H523.103V637.36H508.469ZM540.861 628.054V629.836H537.135V628.054H540.861ZM535.677 631.204H531.321V628.81H535.677V631.204ZM537.135 630.988H540.861V633.04H542.337V624.616H540.861V626.902H537.135V625.372H535.677V627.658H531.321V625.354H529.863V632.392H537.135V630.988ZM533.427 639.358V637.648H542.337V633.814H531.933V634.984H540.879V636.532H531.969V640.528H542.949V639.358H533.427ZM547.88 626.56H546.404V636.55H547.43C549.176 636.55 551.03 636.46 553.208 636.046L553.064 634.768C551.138 635.146 549.428 635.254 547.88 635.272V626.56ZM557.888 624.598V631.168H555.602V624.958H554.216V639.916H555.602V632.392H557.888V640.726H559.31V624.598H557.888ZM511.725 658.374C509.385 657.546 507.801 655.53 507.801 653.424V652.83H511.347V651.624H502.725V652.83H506.325V653.442C506.325 655.728 504.651 657.87 502.257 658.734L503.031 659.886C504.921 659.202 506.397 657.726 507.099 655.872C507.801 657.528 509.187 658.878 510.987 659.526L511.725 658.374ZM506.451 662.01H514.065V665.34H506.451V662.01ZM505.011 666.528H515.505V660.84H505.011V666.528ZM514.011 650.598V654.648H510.825V655.872H514.011V660.048H515.505V650.598H514.011Z" fill="white"/>
<rect x="428.986" y="392.525" width="46.2883" height="46.2883" rx="10" fill="#1A117E"/>
<path d="M432.689 407.893C432.689 406.955 433.463 406.195 434.418 406.195V406.195C435.372 406.195 436.146 406.955 436.146 407.893V413.139C436.146 414.076 435.372 414.836 434.418 414.836V414.836C433.463 414.836 432.689 414.076 432.689 413.139V407.893Z" fill="white"/>
<path fill-rule="evenodd" clip-rule="evenodd" d="M437.01 404.039C437.01 399.981 440.259 396.691 444.268 396.691H459.993C464.002 396.691 467.251 399.981 467.251 404.039V411.387V414.142V428.532C467.251 429.813 466.474 430.91 465.371 431.367C465.414 431.537 465.437 431.715 465.437 431.899V433.43C465.437 434.614 464.489 435.573 463.32 435.573H459.691C458.522 435.573 457.574 434.614 457.574 433.43V431.899C457.574 431.852 457.576 431.805 457.579 431.759C457.582 431.703 457.588 431.648 457.596 431.593H446.666C446.68 431.693 446.687 431.795 446.687 431.899V433.43C446.687 434.614 445.739 435.573 444.57 435.573H440.941C439.772 435.573 438.824 434.614 438.824 433.43V431.899C438.824 431.715 438.847 431.537 438.89 431.367C437.787 430.91 437.01 429.813 437.01 428.532V414.142V411.387V404.039ZM443.965 400.059C443.965 399.382 444.507 398.834 445.175 398.834H459.086C459.754 398.834 460.296 399.382 460.296 400.059V400.977C460.296 401.654 459.754 402.202 459.086 402.202H445.175C444.507 402.202 443.965 401.654 443.965 400.977V400.059ZM442.756 428.532C444.426 428.532 445.78 427.161 445.78 425.47C445.78 423.779 444.426 422.408 442.756 422.408C441.085 422.408 439.732 423.779 439.732 425.47C439.732 427.161 441.085 428.532 442.756 428.532ZM464.53 425.47C464.53 427.161 463.176 428.532 461.506 428.532C459.835 428.532 458.481 427.161 458.481 425.47C458.481 423.779 459.835 422.408 461.506 422.408C463.176 422.408 464.53 423.779 464.53 425.47ZM440.869 404.467C439.692 404.467 438.738 405.388 438.738 406.524V417.1C438.738 418.236 439.692 419.156 440.869 419.156H463.393C464.569 419.156 465.523 418.236 465.523 417.1V406.524C465.523 405.388 464.569 404.467 463.393 404.467H440.869Z" fill="white"/>
<path d="M468.115 407.893C468.115 406.955 468.889 406.195 469.843 406.195V406.195C470.798 406.195 471.571 406.955 471.571 407.893V413.139C471.571 414.076 470.798 414.836 469.843 414.836V414.836C468.889 414.836 468.115 414.076 468.115 413.139V407.893Z" fill="white"/>
<rect x="471.571" y="309.206" width="46.2883" height="46.2883" rx="10" fill="#1A117E"/>
<path d="M475.274 324.574C475.274 323.636 476.048 322.877 477.003 322.877V322.877C477.957 322.877 478.731 323.636 478.731 324.574V329.82C478.731 330.757 477.957 331.517 477.003 331.517V331.517C476.048 331.517 475.274 330.757 475.274 329.82V324.574Z" fill="white"/>
<path fill-rule="evenodd" clip-rule="evenodd" d="M479.595 320.72C479.595 316.662 482.845 313.372 486.853 313.372H502.579C506.587 313.372 509.837 316.662 509.837 320.72V328.068V330.823V345.213C509.837 346.494 509.06 347.591 507.957 348.048C508 348.218 508.022 348.396 508.022 348.58V350.111C508.022 351.295 507.075 352.254 505.906 352.254H502.276C501.107 352.254 500.16 351.295 500.16 350.111V348.58C500.16 348.533 500.161 348.486 500.164 348.44C500.168 348.384 500.173 348.329 500.181 348.274H489.251C489.265 348.374 489.273 348.476 489.273 348.58V350.111C489.273 351.295 488.325 352.254 487.156 352.254H483.527C482.358 352.254 481.41 351.295 481.41 350.111V348.58C481.41 348.396 481.433 348.218 481.476 348.048C480.372 347.591 479.595 346.494 479.595 345.213V330.823V328.068V320.72ZM486.551 316.74C486.551 316.063 487.092 315.515 487.76 315.515H501.672C502.34 315.515 502.881 316.063 502.881 316.74V317.658C502.881 318.335 502.34 318.883 501.672 318.883H487.76C487.092 318.883 486.551 318.335 486.551 317.658V316.74ZM485.341 345.213C487.011 345.213 488.365 343.842 488.365 342.151C488.365 340.46 487.011 339.089 485.341 339.089C483.671 339.089 482.317 340.46 482.317 342.151C482.317 343.842 483.671 345.213 485.341 345.213ZM507.115 342.151C507.115 343.842 505.761 345.213 504.091 345.213C502.421 345.213 501.067 343.842 501.067 342.151C501.067 340.46 502.421 339.089 504.091 339.089C505.761 339.089 507.115 340.46 507.115 342.151ZM483.454 321.148C482.277 321.148 481.323 322.069 481.323 323.205V333.781C481.323 334.917 482.277 335.837 483.454 335.837H505.978C507.155 335.837 508.109 334.917 508.109 333.781V323.205C508.109 322.069 507.155 321.148 505.978 321.148H483.454Z" fill="white"/>
<path d="M510.7 324.574C510.7 323.636 511.474 322.877 512.428 322.877V322.877C513.383 322.877 514.156 323.636 514.156 324.574V329.82C514.156 330.757 513.383 331.517 512.428 331.517V331.517C511.474 331.517 510.7 330.757 510.7 329.82V324.574Z" fill="white"/>
<path d="M612.311 648.2H603.023V644.348H612.113V643.142H601.511V649.388H612.311V648.2ZM614.147 651.494H599.513V652.7H606.047V658.262H607.523V652.7H614.147V651.494ZM627.322 646.472H619.402V643.898H627.322V646.472ZM628.78 642.728H617.962V647.642H628.78V642.728ZM630.67 650.18V648.992H616.054V650.18H622.624V651.764H617.818V652.88H627.34V654.32H617.872V658.154H629.284V657.002H619.312V655.4H628.798V651.764H624.1V650.18H630.67ZM640.676 655.13V652.088H645.842V650.9H635.906V648.29H645.464V643.376H634.412V644.582H644.024V647.102H634.448V652.088H639.182V655.13H632.612V656.336H647.282V655.13H640.676Z" fill="#7D7D7D"/>
<path d="M258.241 9.642V11.424H254.515V9.642H258.241ZM253.057 12.792H248.701V10.398H253.057V12.792ZM254.515 12.576H258.241V14.628H259.717V6.204H258.241V8.49H254.515V6.96H253.057V9.246H248.701V6.942H247.243V13.98H254.515V12.576ZM250.807 20.946V19.236H259.717V15.402H249.313V16.572H258.259V18.12H249.349V22.116H260.329V20.946H250.807ZM265.259 8.148H263.783V18.138H264.809C266.555 18.138 268.409 18.048 270.587 17.634L270.443 16.356C268.517 16.734 266.807 16.842 265.259 16.86V8.148ZM275.267 6.186V12.756H272.981V6.546H271.595V21.504H272.981V13.98H275.267V22.314H276.689V6.186H275.267ZM283.294 21.234C285.526 21.234 287.614 19.596 287.614 16.698C287.614 13.8 285.832 12.504 283.636 12.504C282.844 12.504 282.268 12.702 281.674 13.026L281.998 9.21H286.984V7.788H280.558L280.144 13.98L281.026 14.52C281.782 14.016 282.34 13.746 283.222 13.746C284.878 13.746 285.958 14.862 285.958 16.752C285.958 18.678 284.698 19.866 283.15 19.866C281.62 19.866 280.666 19.164 279.91 18.408L279.1 19.488C279.982 20.37 281.242 21.234 283.294 21.234ZM297.58 19.128V16.086H302.746V14.898H292.81V12.288H302.368V7.374H291.316V8.58H300.928V11.1H291.352V16.086H296.086V19.128H289.516V20.334H304.186V19.128H297.58Z" fill="#7D7D7D"/>
<path d="M513.734 444.511C512.795 441.829 513.158 438.414 515.017 437.424L515.716 437.051L515.005 435.717L514.306 436.089C512.399 437.105 509.387 435.508 507.66 433.185L506.914 434.235C508.447 436.233 510.78 437.702 512.914 437.687C511.76 439.465 511.67 442.205 512.455 444.56L513.734 444.511ZM504.013 437.901L503.319 436.599L499.221 438.782L504.476 448.648L505.541 448.081L500.979 439.518L504.013 437.901ZM505.013 433.576L503.964 434.134L507.121 440.06L504.245 441.592L504.939 442.894L507.815 441.362L510.853 447.066L511.902 446.507L505.013 433.576ZM522.922 453.871L521.009 450.28L522.725 449.366L522.031 448.064L520.315 448.978L518.386 445.356L517.353 445.906L521.89 454.421L522.922 453.871ZM515.017 449.904C516.002 449.379 517.11 449.89 517.787 451.161C518.464 452.432 518.27 453.637 517.285 454.161C516.3 454.686 515.207 454.167 514.53 452.896C513.853 451.625 514.032 450.429 515.017 449.904ZM513.892 454.072C514.971 455.598 516.531 456.154 517.945 455.4C519.549 454.546 519.846 452.613 518.788 450.628C517.73 448.642 515.961 447.81 514.357 448.665C512.943 449.418 512.533 451.023 513.198 452.769L511.642 453.599C510.858 452.242 510.147 450.907 509.537 449.764L508.534 450.522C509.863 453.017 511.681 456.352 513.846 459.114L514.772 458.518C513.93 457.397 513.132 456.129 512.383 454.876L513.892 454.072ZM521.055 460.78L519.871 458.556L525.923 455.331L525.229 454.028L510.979 461.62L511.673 462.923L518.774 459.14L519.959 461.364L521.055 460.78ZM521.621 475.202C520.604 475.744 519.305 474.682 518.111 472.442C516.892 470.155 516.737 468.484 517.753 467.942C518.754 467.409 520.054 468.47 521.273 470.758C522.466 472.998 522.622 474.669 521.621 475.202ZM527.99 475.48L529.038 474.922L527.963 472.904C529.874 472.355 531.16 471.67 532.225 471.103L533.257 470.553L528.137 460.942L527.073 461.509L531.508 469.833C530.443 470.4 529.188 471.069 527.261 471.586L522.157 462.006L521.109 462.565L524.19 468.347L521.95 469.541C520.392 466.924 518.616 465.81 517.059 466.639C515.375 467.536 515.412 469.903 517.063 473.001C518.688 476.051 520.631 477.402 522.315 476.505C523.872 475.675 523.938 473.58 522.652 470.859L524.892 469.666L527.99 475.48ZM528.007 486.768L530.692 485.338L533.121 489.897L534.169 489.339L529.498 480.569L531.801 479.342L536.295 487.778L540.632 485.467L535.436 475.713L534.371 476.28L538.891 484.763L536.667 485.948L532.164 477.497L527.764 479.841L529.989 484.019L527.305 485.45L524.216 479.651L523.151 480.218L530.049 493.165L531.113 492.598L528.007 486.768Z" fill="#7D7D7D"/>
<path d="M351.726 156.597C350.787 153.916 351.149 150.5 353.008 149.51L353.707 149.138L352.996 147.803L352.297 148.176C350.391 149.191 347.378 147.594 345.651 145.272L344.905 146.322C346.438 148.319 348.771 149.789 350.905 149.774C349.751 151.551 349.661 154.291 350.446 156.647L351.726 156.597ZM342.004 149.988L341.31 148.685L337.212 150.869L342.467 160.734L343.532 160.167L338.97 151.605L342.004 149.988ZM343.004 145.662L341.955 146.221L345.112 152.146L342.237 153.678L342.931 154.981L345.806 153.449L348.844 159.152L349.893 158.594L343.004 145.662ZM360.913 165.957L359.001 162.367L360.716 161.453L360.022 160.15L358.307 161.064L356.377 157.442L355.344 157.992L359.881 166.507L360.913 165.957ZM353.008 161.99C353.993 161.466 355.101 161.977 355.778 163.247C356.455 164.518 356.261 165.723 355.276 166.248C354.291 166.773 353.199 166.253 352.522 164.982C351.844 163.712 352.023 162.515 353.008 161.99ZM351.884 166.159C352.962 167.685 354.522 168.24 355.936 167.487C357.541 166.632 357.837 164.7 356.779 162.714C355.721 160.729 353.952 159.897 352.348 160.751C350.934 161.505 350.524 163.11 351.19 164.856L349.633 165.685C348.849 164.329 348.138 162.994 347.529 161.85L346.525 162.609C347.854 165.103 349.672 168.438 351.837 171.201L352.764 170.605C351.921 169.483 351.123 168.215 350.374 166.963L351.884 166.159ZM359.047 172.866L357.862 170.642L363.914 167.418L363.22 166.115L348.97 173.707L349.664 175.009L356.766 171.226L357.95 173.45L359.047 172.866ZM359.612 187.289C358.595 187.83 357.296 186.769 356.102 184.529C354.884 182.241 354.728 180.57 355.744 180.029C356.745 179.495 358.045 180.557 359.264 182.845C360.457 185.085 360.613 186.755 359.612 187.289ZM365.981 187.567L367.029 187.008L365.955 184.991C367.865 184.442 369.152 183.756 370.216 183.189L371.249 182.639L366.128 173.028L365.064 173.595L369.499 181.92C368.434 182.487 367.179 183.155 365.252 183.672L360.149 174.093L359.1 174.651L362.181 180.434L359.941 181.627C358.384 179.01 356.607 177.897 355.05 178.726C353.367 179.623 353.404 181.99 355.054 185.087C356.679 188.137 358.622 189.488 360.306 188.591C361.863 187.762 361.93 185.666 360.643 182.946L362.883 181.752L365.981 187.567ZM365.998 198.855L368.683 197.424L371.112 201.984L372.161 201.425L367.489 192.656L369.792 191.429L374.286 199.864L378.623 197.554L373.427 187.8L372.362 188.367L376.882 196.85L374.658 198.035L370.155 189.583L365.755 191.928L367.981 196.106L365.296 197.536L362.207 191.738L361.142 192.305L368.04 205.252L369.104 204.685L365.998 198.855Z" fill="#7D7D7D"/>
</svg>
