<svg width="30" height="30" viewBox="0 0 30 30" fill="none" xmlns="http://www.w3.org/2000/svg">
<path d="M22.0647 27.8862C20.9473 27.4522 19.5422 27.1175 18.3446 26.4111C12.42 22.9136 7.75952 18.0743 4.29109 12.0352C4.22195 11.916 4.1611 11.7884 4.10855 11.6607C2.19178 7.1278 2.61496 6.56899 6.58402 3.42885C7.50783 2.697 8.46759 2.91259 9.15076 3.99334C9.9667 5.28684 10.7356 6.62288 11.6594 7.83412C12.6386 9.11627 12.4062 10.2935 11.5599 11.4083C10.7384 12.4918 10.9763 13.3201 11.842 14.1768C13.4794 15.7965 15.1113 17.4276 16.7182 19.0785C17.2963 19.6713 17.8412 19.7905 18.4995 19.243C20.1507 17.8701 21.6885 18.0857 23.2706 19.4614C24.2027 20.2699 25.4004 20.7663 26.2882 21.6144C26.7446 22.0513 27.1761 23.2568 26.9327 23.5915C25.8899 25.0269 24.6149 26.2892 23.3702 27.5628C23.1545 27.7841 22.6898 27.7443 22.0647 27.8862Z" fill="#007105"/>
</svg>
