<svg width="29" height="28" viewBox="0 0 29 28" fill="none" xmlns="http://www.w3.org/2000/svg">
<path fill-rule="evenodd" clip-rule="evenodd" d="M20.8579 17.3967C20.3348 18.2633 19.6859 19.0455 18.9365 19.7179L26.2185 27L28.3399 24.8786L20.8579 17.3967Z" fill="#7D7D7D"/>
<path fill-rule="evenodd" clip-rule="evenodd" d="M12.1562 19.3125C16.1085 19.3125 19.3125 16.1085 19.3125 12.1562C19.3125 8.20396 16.1085 5 12.1562 5C8.20396 5 5 8.20396 5 12.1562C5 16.1085 8.20396 19.3125 12.1562 19.3125ZM12.1562 22.3125C17.7654 22.3125 22.3125 17.7654 22.3125 12.1562C22.3125 6.54711 17.7654 2 12.1562 2C6.54711 2 2 6.54711 2 12.1562C2 17.7654 6.54711 22.3125 12.1562 22.3125Z" fill="#7D7D7D"/>
</svg>
