<svg width="261" height="281" viewBox="0 0 261 281" fill="none" xmlns="http://www.w3.org/2000/svg">
<path d="M34.1618 188.026H44.8781L57.3023 223.851H47.0647L44.6647 216.761H32.9358L30.6974 223.851H21.6309L34.1618 188.026ZM34.854 210.309H42.6397L38.8551 198.421H38.6416L34.854 210.309Z" fill="black"/>
<path d="M72.2268 188.026H87.1029C96.6482 188.026 101.287 192.185 101.287 199.702C101.287 207.806 96.3829 211.962 87.3712 211.962H82.254V223.851H72.2299V188.026H72.2268ZM85.9288 205.513C89.6066 205.513 90.8874 203.809 90.8874 200.235C90.8874 196.238 89.3931 194.905 86.1422 194.905H82.2509V205.513H85.9288Z" fill="black"/>
<path d="M117.011 188.026H131.887C141.432 188.026 146.071 192.185 146.071 199.702C146.071 207.806 141.167 211.962 132.155 211.962H127.038V223.851H117.014V188.026H117.011ZM130.713 205.513C134.391 205.513 135.672 203.809 135.672 200.235C135.672 196.238 134.177 194.905 130.926 194.905H127.035V205.513H130.713Z" fill="black"/>
<path d="M161.795 188.026H171.819V216.655H185.415V223.851H161.795V188.026Z" fill="black"/>
<path d="M201.41 188.026H226.148V195.222H211.327V202.046H222.897V209.084H211.327V216.655H226.63V223.851H201.41V188.026Z" fill="black"/>
<path d="M0 245.78H23.3631V252.576H9.36538V259.019H20.2922V265.663H9.36538V272.81H23.8145V279.607H0V245.78Z" fill="#D71535"/>
<path d="M39.4714 245.78H49.6907L60.6175 264.709H60.77V245.78H68.8271V279.61H59.8155L47.7329 258.516H47.5316V279.61H39.4745V245.78H39.4714Z" fill="#D71535"/>
<path d="M84.0818 263.248V262.141C84.0818 249.305 92.2883 245.228 101.654 245.228C106.335 245.228 109.961 246.134 111.824 247.091V254.037C109.961 253.381 107.192 252.476 102.962 252.476C95.7618 252.476 93.8497 256.202 93.8497 261.888V263.398C93.8497 269.691 95.2099 273.365 101.099 273.365C102.508 273.365 103.92 273.112 104.725 272.81V267.523H99.891V261.33H113.535V277.942C111.019 279 106.234 280.107 101.401 280.107C90.6751 280.113 84.0818 275.683 84.0818 263.248Z" fill="#D71535"/>
<path d="M129.34 245.78H138.806V272.813H151.645V279.61H129.34V245.78Z" fill="#D71535"/>
<path d="M166.952 245.78H176.466V279.61H166.952V245.78Z" fill="#D71535"/>
<path d="M191.772 278.149V271.252C194.794 272.359 197.865 273.164 201.793 273.164C205.568 273.164 207.029 272.005 207.029 269.993C207.029 268.029 206.172 267.426 202.9 266.77L200.384 266.267C194.995 265.261 191.723 262.895 191.723 255.796C191.723 249.402 195.7 245.225 204.26 245.225C209.649 245.225 212.265 246.03 214.278 246.987V253.784C211.912 252.979 208.993 252.174 205.166 252.174C202.095 252.174 200.534 253.131 200.534 255.095C200.534 256.857 201.54 257.562 204.51 258.165L207.026 258.62C213.019 259.778 216.291 262.144 216.291 268.99C216.291 276.237 211.659 280.165 202.897 280.165C198.164 280.162 194.187 279.457 191.772 278.149Z" fill="#D71535"/>
<path d="M231.394 245.78H240.86V258.818H251.484V245.78H260.999V279.61H251.484V265.614H240.86V279.61H231.394V245.78Z" fill="#D71535"/>
<path d="M97.493 79.8376L47.9306 165.664C47.5982 166.241 48.0129 166.96 48.6777 166.96H212.592C213.257 166.96 213.674 166.241 213.339 165.664L163.783 79.8376C163.627 79.5693 163.343 79.4047 163.035 79.4047H98.2402C97.9322 79.4047 97.6455 79.5693 97.493 79.8376Z" fill="#D71535"/>
<path d="M110.125 120.562L174.002 1.41119C174.307 0.844055 175.1 0.795269 175.469 1.31972L210.744 51.2064C211.021 51.5967 210.927 52.1394 210.533 52.4138L111.384 121.678C110.637 122.199 109.698 121.364 110.125 120.562Z" fill="#316E1D"/>
</svg>
