<svg width="68" height="68" viewBox="0 0 68 68" fill="none" xmlns="http://www.w3.org/2000/svg">
<path d="M11.7224 44.2885H14.1449L16.9534 52.3867H14.6392L14.0966 50.7841H11.4452L10.9392 52.3867H8.88971L11.7224 44.2885ZM11.8789 49.3257H13.6389L12.7833 46.6382H12.7351L11.8789 49.3257Z" fill="black"/>
<path d="M20.3273 44.2885H23.6901C25.8478 44.2885 26.8964 45.2286 26.8964 46.9277C26.8964 48.7598 25.7879 49.6992 23.7507 49.6992H22.594V52.3867H20.328V44.2885H20.3273ZM23.4247 48.2414C24.2561 48.2414 24.5456 47.8561 24.5456 47.0483C24.5456 46.1447 24.2078 45.8435 23.4729 45.8435H22.5933V48.2414H23.4247Z" fill="black"/>
<path d="M30.4509 44.2885H33.8137C35.9714 44.2885 37.02 45.2286 37.02 46.9277C37.02 48.7598 35.9115 49.6992 33.8743 49.6992H32.7176V52.3867H30.4516V44.2885H30.4509ZM33.5483 48.2414C34.3797 48.2414 34.6692 47.8561 34.6692 47.0483C34.6692 46.1447 34.3314 45.8435 33.5965 45.8435H32.7169V48.2414H33.5483Z" fill="black"/>
<path d="M40.5745 44.2885H42.8405V50.76H45.9137V52.3867H40.5745V44.2885Z" fill="black"/>
<path d="M49.5297 44.2885H55.1219V45.9152H51.7715V47.4577H54.387V49.0486H51.7715V50.76H55.2308V52.3867H49.5297V44.2885V44.2885Z" fill="black"/>
<path d="M4 57.3439H9.28135V58.8803H6.11709V60.3367H8.58714V61.8386H6.11709V63.4543H9.38338V64.9907H4V57.3439Z" fill="#D71535"/>
<path d="M12.9227 57.3439H15.2328L17.7029 61.6229H17.7374V57.3439H19.5587V64.9914H17.5216L14.7903 60.223H14.7448V64.9914H12.9234V57.3439H12.9227Z" fill="#D71535"/>
<path d="M23.007 61.2927V61.0425C23.007 58.1407 24.8621 57.2192 26.9792 57.2192C28.0374 57.2192 28.8571 57.4239 29.2783 57.6403V59.2105C28.8571 59.0623 28.2312 58.8576 27.275 58.8576C25.6473 58.8576 25.2151 59.6998 25.2151 60.9853V61.3265C25.2151 62.7491 25.5226 63.5797 26.8538 63.5797C27.1723 63.5797 27.4914 63.5225 27.6734 63.4543V62.2591H26.5808V60.8592H29.6651V64.6143C29.0963 64.8535 28.0147 65.1037 26.922 65.1037C24.4975 65.1051 23.007 64.1036 23.007 61.2927Z" fill="#D71535"/>
<path d="M33.238 57.3439H35.3778V63.455H38.2801V64.9914H33.238V57.3439V57.3439Z" fill="#D71535"/>
<path d="M41.7402 57.3439H43.8911V64.9914H41.7402V57.3439Z" fill="#D71535"/>
<path d="M47.3511 64.6612V63.102C48.0342 63.3522 48.7284 63.5342 49.6164 63.5342C50.4698 63.5342 50.8 63.2723 50.8 62.8174C50.8 62.3735 50.6063 62.237 49.8666 62.0888L49.2979 61.9751C48.0797 61.7476 47.34 61.2128 47.34 59.6082C47.34 58.1628 48.239 57.2185 50.1741 57.2185C51.3922 57.2185 51.9837 57.4004 52.4387 57.6169V59.1532C51.9037 58.9713 51.244 58.7893 50.3788 58.7893C49.6846 58.7893 49.3317 59.0057 49.3317 59.4496C49.3317 59.848 49.5591 60.0072 50.2306 60.1437L50.7993 60.2464C52.154 60.5083 52.8937 61.0432 52.8937 62.5906C52.8937 64.229 51.8465 65.1168 49.8659 65.1168C48.796 65.1161 47.897 64.9569 47.3511 64.6612Z" fill="#D71535"/>
<path d="M56.3076 57.3439H58.4474V60.2912H60.8492V57.3439H63.0001V64.9914H60.8492V61.8276H58.4474V64.9914H56.3076V57.3439Z" fill="#D71535"/>
<path d="M26.0388 19.8319L14.835 39.2334C14.7599 39.3637 14.8536 39.5263 15.0039 39.5263H52.0574C52.2077 39.5263 52.3022 39.3637 52.2263 39.2334L41.0239 19.8319C40.9887 19.7712 40.9246 19.734 40.855 19.734H26.2077C26.1381 19.734 26.0733 19.7712 26.0388 19.8319Z" fill="#D71535"/>
<path d="M28.8942 29.0377L43.334 2.10321C43.4029 1.97501 43.5821 1.96398 43.6656 2.08253L51.6396 13.3596C51.7024 13.4479 51.681 13.5706 51.5921 13.6326L29.1789 29.29C29.01 29.4079 28.7977 29.219 28.8942 29.0377Z" fill="#316E1D"/>
</svg>
